<mxfile host="Electron" agent="Mozilla/5.0 (Windows NT 10.0; Win64; x64) AppleWebKit/537.36 (KHTML, like Gecko) draw.io/26.2.2 Chrome/134.0.6998.178 Electron/35.1.2 Safari/537.36" version="26.2.2">
  <diagram name="Page-1" id="2VmAt-lYBuk27_H0Aewt">
    <mxGraphModel dx="774" dy="1601" grid="1" gridSize="10" guides="1" tooltips="1" connect="1" arrows="1" fold="1" page="1" pageScale="1" pageWidth="850" pageHeight="1100" math="0" shadow="0">
      <root>
        <mxCell id="0" />
        <mxCell id="1" parent="0" />
        <mxCell id="9UtxRmy-OZwUhLQYmwO6-1" value="&lt;font style=&quot;font-size: 16px;&quot;&gt;Client&lt;/font&gt;" style="shape=umlActor;verticalLabelPosition=bottom;verticalAlign=top;html=1;outlineConnect=0;" parent="1" vertex="1">
          <mxGeometry x="24" y="-1081" width="30" height="60" as="geometry" />
        </mxCell>
        <mxCell id="9UtxRmy-OZwUhLQYmwO6-2" value="" style="endArrow=none;dashed=1;html=1;rounded=0;" parent="1" edge="1">
          <mxGeometry width="50" height="50" relative="1" as="geometry">
            <mxPoint x="38" y="-290" as="sourcePoint" />
            <mxPoint x="37.89" y="-1000" as="targetPoint" />
          </mxGeometry>
        </mxCell>
        <mxCell id="9UtxRmy-OZwUhLQYmwO6-3" value="" style="rounded=0;whiteSpace=wrap;html=1;" parent="1" vertex="1">
          <mxGeometry x="331" y="-1080" width="120" height="60" as="geometry" />
        </mxCell>
        <mxCell id="9UtxRmy-OZwUhLQYmwO6-4" value="&lt;span style=&quot;font-size:12.0pt;line-height:107%;&lt;br/&gt;font-family:&amp;quot;Times New Roman&amp;quot;,serif;mso-fareast-font-family:Calibri;mso-fareast-theme-font:&lt;br/&gt;minor-latin;mso-ansi-language:FR;mso-fareast-language:EN-US;mso-bidi-language:&lt;br/&gt;AR-SA&quot;&gt;Système&amp;nbsp;&amp;nbsp;&lt;/span&gt;" style="text;html=1;align=center;verticalAlign=middle;whiteSpace=wrap;rounded=0;" parent="1" vertex="1">
          <mxGeometry x="358" y="-1065" width="60" height="30" as="geometry" />
        </mxCell>
        <mxCell id="9UtxRmy-OZwUhLQYmwO6-5" value="" style="endArrow=none;dashed=1;html=1;rounded=0;" parent="1" edge="1">
          <mxGeometry width="50" height="50" relative="1" as="geometry">
            <mxPoint x="389" y="-280" as="sourcePoint" />
            <mxPoint x="389" y="-1021" as="targetPoint" />
          </mxGeometry>
        </mxCell>
        <mxCell id="9UtxRmy-OZwUhLQYmwO6-6" value="" style="html=1;points=[[0,0,0,0,5],[0,1,0,0,-5],[1,0,0,0,5],[1,1,0,0,-5]];perimeter=orthogonalPerimeter;outlineConnect=0;targetShapes=umlLifeline;portConstraint=eastwest;newEdgeStyle={&quot;curved&quot;:0,&quot;rounded&quot;:0};" parent="1" vertex="1">
          <mxGeometry x="384" y="-981" width="10" height="52" as="geometry" />
        </mxCell>
        <mxCell id="9UtxRmy-OZwUhLQYmwO6-7" value="&lt;span style=&quot;font-size:12.0pt;line-height:107%;&lt;br/&gt;font-family:&amp;quot;Times New Roman&amp;quot;,serif;mso-fareast-font-family:Calibri;mso-fareast-theme-font:&lt;br/&gt;minor-latin;mso-ansi-language:FR;mso-fareast-language:EN-US;mso-bidi-language:&lt;br/&gt;AR-SA&quot;&gt;1 : Accéder à l’interface de réservation&lt;/span&gt;" style="html=1;verticalAlign=bottom;endArrow=block;curved=0;rounded=0;" parent="1" edge="1">
          <mxGeometry width="80" relative="1" as="geometry">
            <mxPoint x="40" y="-971" as="sourcePoint" />
            <mxPoint x="384" y="-971" as="targetPoint" />
          </mxGeometry>
        </mxCell>
        <mxCell id="9UtxRmy-OZwUhLQYmwO6-8" value="&lt;span style=&quot;font-size:12.0pt;line-height:107%;&lt;br/&gt;font-family:&amp;quot;Times New Roman&amp;quot;,serif;mso-fareast-font-family:Calibri;mso-fareast-theme-font:&lt;br/&gt;minor-latin;mso-ansi-language:FR;mso-fareast-language:EN-US;mso-bidi-language:&lt;br/&gt;AR-SA&quot;&gt;2 : Afficher liste espaces et&amp;nbsp; disponibilités&lt;/span&gt;" style="html=1;verticalAlign=bottom;endArrow=open;dashed=1;endSize=8;curved=0;rounded=0;" parent="1" edge="1">
          <mxGeometry x="0.0035" relative="1" as="geometry">
            <mxPoint x="380" y="-938" as="sourcePoint" />
            <mxPoint x="40" y="-938" as="targetPoint" />
            <mxPoint as="offset" />
          </mxGeometry>
        </mxCell>
        <mxCell id="9UtxRmy-OZwUhLQYmwO6-10" value="&lt;span style=&quot;line-height: 107%;&quot;&gt;&lt;font style=&quot;font-size: 16px;&quot;&gt;4 : Soumettre le formulaire&amp;nbsp;&lt;/font&gt;&lt;/span&gt;&lt;span style=&quot;font-size:12.0pt;line-height:107%;&lt;br/&gt;font-family:&amp;quot;Times New Roman&amp;quot;,serif;mso-fareast-font-family:Calibri;mso-fareast-theme-font:&lt;br/&gt;minor-latin;mso-ansi-language:FR;mso-fareast-language:EN-US;mso-bidi-language:&lt;br/&gt;AR-SA&quot;&gt;réservation&lt;/span&gt;" style="html=1;verticalAlign=bottom;endArrow=block;curved=0;rounded=0;" parent="1" edge="1">
          <mxGeometry x="0.0523" y="6" width="80" relative="1" as="geometry">
            <mxPoint x="40" y="-860" as="sourcePoint" />
            <mxPoint x="384" y="-860" as="targetPoint" />
            <mxPoint as="offset" />
          </mxGeometry>
        </mxCell>
        <mxCell id="9UtxRmy-OZwUhLQYmwO6-14" value="&lt;span style=&quot;line-height: 107%;&quot;&gt;&lt;font style=&quot;font-size: 16px;&quot;&gt;3 : Remplir formulaire&amp;nbsp;&lt;/font&gt;&lt;/span&gt;&lt;span style=&quot;font-size:12.0pt;line-height:107%;&lt;br/&gt;font-family:&amp;quot;Times New Roman&amp;quot;,serif;mso-fareast-font-family:Calibri;mso-fareast-theme-font:&lt;br/&gt;minor-latin;mso-ansi-language:FR;mso-fareast-language:EN-US;mso-bidi-language:&lt;br/&gt;AR-SA&quot;&gt;réservation&lt;/span&gt;" style="html=1;verticalAlign=bottom;endArrow=block;curved=0;rounded=0;" parent="1" edge="1">
          <mxGeometry x="-0.0033" width="80" relative="1" as="geometry">
            <mxPoint x="40" y="-890" as="sourcePoint" />
            <mxPoint x="384" y="-890" as="targetPoint" />
            <mxPoint as="offset" />
          </mxGeometry>
        </mxCell>
        <mxCell id="9UtxRmy-OZwUhLQYmwO6-15" value="" style="endArrow=none;dashed=1;html=1;rounded=0;" parent="1" edge="1">
          <mxGeometry width="50" height="50" relative="1" as="geometry">
            <mxPoint x="599" y="-280" as="sourcePoint" />
            <mxPoint x="599" y="-1021" as="targetPoint" />
          </mxGeometry>
        </mxCell>
        <mxCell id="9UtxRmy-OZwUhLQYmwO6-16" value="" style="rounded=0;whiteSpace=wrap;html=1;" parent="1" vertex="1">
          <mxGeometry x="541" y="-1080" width="120" height="60" as="geometry" />
        </mxCell>
        <mxCell id="9UtxRmy-OZwUhLQYmwO6-17" value="&lt;span style=&quot;font-size: 16px;&quot;&gt;Système de paiement&amp;nbsp;&lt;/span&gt;" style="text;html=1;align=center;verticalAlign=middle;whiteSpace=wrap;rounded=0;" parent="1" vertex="1">
          <mxGeometry x="570" y="-1063" width="60" height="30" as="geometry" />
        </mxCell>
        <mxCell id="9UtxRmy-OZwUhLQYmwO6-20" value="" style="endArrow=none;dashed=1;html=1;rounded=0;entryX=1.002;entryY=0.591;entryDx=0;entryDy=0;entryPerimeter=0;" parent="1" edge="1">
          <mxGeometry width="50" height="50" relative="1" as="geometry">
            <mxPoint x="21" y="-374" as="sourcePoint" />
            <mxPoint x="758.4780000000005" y="-372.61799999999994" as="targetPoint" />
          </mxGeometry>
        </mxCell>
        <mxCell id="9UtxRmy-OZwUhLQYmwO6-28" value="" style="html=1;points=[[0,0,0,0,5],[0,1,0,0,-5],[1,0,0,0,5],[1,1,0,0,-5]];perimeter=orthogonalPerimeter;outlineConnect=0;targetShapes=umlLifeline;portConstraint=eastwest;newEdgeStyle={&quot;curved&quot;:0,&quot;rounded&quot;:0};" parent="1" vertex="1">
          <mxGeometry x="385" y="-841" width="10" height="53" as="geometry" />
        </mxCell>
        <mxCell id="9UtxRmy-OZwUhLQYmwO6-29" value="" style="html=1;points=[[0,0,0,0,5],[0,1,0,0,-5],[1,0,0,0,5],[1,1,0,0,-5]];perimeter=orthogonalPerimeter;outlineConnect=0;targetShapes=umlLifeline;portConstraint=eastwest;newEdgeStyle={&quot;curved&quot;:0,&quot;rounded&quot;:0};" parent="1" vertex="1">
          <mxGeometry x="389" y="-833" width="10" height="40" as="geometry" />
        </mxCell>
        <mxCell id="9UtxRmy-OZwUhLQYmwO6-30" value="&lt;font style=&quot;font-size: 16px;&quot;&gt;5 : Verifier information&lt;/font&gt;" style="html=1;align=left;spacingLeft=2;endArrow=block;rounded=0;edgeStyle=orthogonalEdgeStyle;curved=0;rounded=0;" parent="1" edge="1">
          <mxGeometry relative="1" as="geometry">
            <mxPoint x="396" y="-841" as="sourcePoint" />
            <Array as="points">
              <mxPoint x="426" y="-811" />
            </Array>
            <mxPoint x="401" y="-811" as="targetPoint" />
          </mxGeometry>
        </mxCell>
        <mxCell id="9UtxRmy-OZwUhLQYmwO6-31" value="&lt;span style=&quot;font-size:12.0pt;line-height:107%;&lt;br/&gt;font-family:&amp;quot;Times New Roman&amp;quot;,serif;mso-fareast-font-family:Calibri;mso-fareast-theme-font:&lt;br/&gt;minor-latin;mso-ansi-language:FR;mso-fareast-language:EN-US;mso-bidi-language:&lt;br/&gt;AR-SA&quot;&gt;6 : Afficher Payer&lt;/span&gt;" style="html=1;verticalAlign=bottom;endArrow=open;dashed=1;endSize=8;curved=0;rounded=0;" parent="1" edge="1">
          <mxGeometry x="0.0035" relative="1" as="geometry">
            <mxPoint x="382" y="-812" as="sourcePoint" />
            <mxPoint x="42" y="-812" as="targetPoint" />
            <mxPoint as="offset" />
          </mxGeometry>
        </mxCell>
        <mxCell id="9UtxRmy-OZwUhLQYmwO6-32" value="&lt;span style=&quot;font-size:12.0pt;line-height:107%;&lt;br/&gt;font-family:&amp;quot;Times New Roman&amp;quot;,serif;mso-fareast-font-family:Calibri;mso-fareast-theme-font:&lt;br/&gt;minor-latin;mso-ansi-language:FR;mso-fareast-language:EN-US;mso-bidi-language:&lt;br/&gt;AR-SA&quot;&gt;7 : Cliquer Payer&lt;/span&gt;" style="html=1;verticalAlign=bottom;endArrow=block;curved=0;rounded=0;" parent="1" edge="1">
          <mxGeometry width="80" relative="1" as="geometry">
            <mxPoint x="42" y="-770" as="sourcePoint" />
            <mxPoint x="600" y="-770" as="targetPoint" />
          </mxGeometry>
        </mxCell>
        <mxCell id="9UtxRmy-OZwUhLQYmwO6-33" value="" style="html=1;points=[[0,0,0,0,5],[0,1,0,0,-5],[1,0,0,0,5],[1,1,0,0,-5]];perimeter=orthogonalPerimeter;outlineConnect=0;targetShapes=umlLifeline;portConstraint=eastwest;newEdgeStyle={&quot;curved&quot;:0,&quot;rounded&quot;:0};" parent="1" vertex="1">
          <mxGeometry x="595" y="-765" width="10" height="52" as="geometry" />
        </mxCell>
        <mxCell id="9UtxRmy-OZwUhLQYmwO6-34" value="&lt;span style=&quot;font-size:12.0pt;line-height:107%;&lt;br/&gt;font-family:&amp;quot;Times New Roman&amp;quot;,serif;mso-fareast-font-family:Calibri;mso-fareast-theme-font:&lt;br/&gt;minor-latin;mso-ansi-language:FR;mso-fareast-language:EN-US;mso-bidi-language:&lt;br/&gt;AR-SA&quot;&gt;8 : Afficher formlaire de paiement&lt;/span&gt;" style="html=1;verticalAlign=bottom;endArrow=open;dashed=1;endSize=8;curved=0;rounded=0;" parent="1" edge="1">
          <mxGeometry x="0.0035" relative="1" as="geometry">
            <mxPoint x="596" y="-738" as="sourcePoint" />
            <mxPoint x="39" y="-738" as="targetPoint" />
            <mxPoint as="offset" />
          </mxGeometry>
        </mxCell>
        <mxCell id="9UtxRmy-OZwUhLQYmwO6-36" value="&lt;span style=&quot;font-size: 16px;&quot;&gt;9 : Remplir et Soumettre formulaire de paiement&lt;/span&gt;" style="html=1;verticalAlign=bottom;endArrow=block;curved=0;rounded=0;" parent="1" edge="1">
          <mxGeometry x="0.0523" y="6" width="80" relative="1" as="geometry">
            <mxPoint x="40" y="-682" as="sourcePoint" />
            <mxPoint x="595" y="-682" as="targetPoint" />
            <mxPoint as="offset" />
          </mxGeometry>
        </mxCell>
        <mxCell id="9UtxRmy-OZwUhLQYmwO6-40" value="" style="html=1;points=[[0,0,0,0,5],[0,1,0,0,-5],[1,0,0,0,5],[1,1,0,0,-5]];perimeter=orthogonalPerimeter;outlineConnect=0;targetShapes=umlLifeline;portConstraint=eastwest;newEdgeStyle={&quot;curved&quot;:0,&quot;rounded&quot;:0};" parent="1" vertex="1">
          <mxGeometry x="596" y="-705" width="10" height="53" as="geometry" />
        </mxCell>
        <mxCell id="9UtxRmy-OZwUhLQYmwO6-41" value="" style="html=1;points=[[0,0,0,0,5],[0,1,0,0,-5],[1,0,0,0,5],[1,1,0,0,-5]];perimeter=orthogonalPerimeter;outlineConnect=0;targetShapes=umlLifeline;portConstraint=eastwest;newEdgeStyle={&quot;curved&quot;:0,&quot;rounded&quot;:0};" parent="1" vertex="1">
          <mxGeometry x="600" y="-697" width="10" height="40" as="geometry" />
        </mxCell>
        <mxCell id="9UtxRmy-OZwUhLQYmwO6-42" value="&lt;font style=&quot;font-size: 16px;&quot;&gt;10 : Verifier information&lt;/font&gt;" style="html=1;align=left;spacingLeft=2;endArrow=block;rounded=0;edgeStyle=orthogonalEdgeStyle;curved=0;rounded=0;" parent="1" edge="1">
          <mxGeometry relative="1" as="geometry">
            <mxPoint x="607" y="-705" as="sourcePoint" />
            <Array as="points">
              <mxPoint x="637" y="-675" />
            </Array>
            <mxPoint x="612" y="-675" as="targetPoint" />
          </mxGeometry>
        </mxCell>
        <mxCell id="9UtxRmy-OZwUhLQYmwO6-48" value="&lt;span style=&quot;font-family: &amp;quot;Times New Roman&amp;quot;, serif; font-size: 12pt; text-align: justify; background-color: transparent; color: light-dark(rgb(0, 0, 0), rgb(255, 255, 255));&quot;&gt;&lt;b&gt;Loop&lt;/b&gt;&lt;br&gt;[vérifie=erroné &amp;amp;&amp;amp; nbr&amp;lt;3]&lt;/span&gt;" style="shape=umlFrame;whiteSpace=wrap;html=1;pointerEvents=0;width=200;height=41;" parent="1" vertex="1">
          <mxGeometry x="70" y="-641" width="740" height="151" as="geometry" />
        </mxCell>
        <mxCell id="9UtxRmy-OZwUhLQYmwO6-57" value="&lt;span style=&quot;font-size: 16px;&quot;&gt;9 : Remplir et Soumettre formulaire de paiement&lt;/span&gt;" style="html=1;verticalAlign=bottom;endArrow=block;curved=0;rounded=0;" parent="1" edge="1">
          <mxGeometry x="0.0523" y="6" width="80" relative="1" as="geometry">
            <mxPoint x="39" y="-531" as="sourcePoint" />
            <mxPoint x="594" y="-531" as="targetPoint" />
            <mxPoint as="offset" />
          </mxGeometry>
        </mxCell>
        <mxCell id="9UtxRmy-OZwUhLQYmwO6-58" value="" style="html=1;points=[[0,0,0,0,5],[0,1,0,0,-5],[1,0,0,0,5],[1,1,0,0,-5]];perimeter=orthogonalPerimeter;outlineConnect=0;targetShapes=umlLifeline;portConstraint=eastwest;newEdgeStyle={&quot;curved&quot;:0,&quot;rounded&quot;:0};" parent="1" vertex="1">
          <mxGeometry x="595" y="-530" width="10" height="34" as="geometry" />
        </mxCell>
        <mxCell id="9UtxRmy-OZwUhLQYmwO6-59" value="" style="html=1;points=[[0,0,0,0,5],[0,1,0,0,-5],[1,0,0,0,5],[1,1,0,0,-5]];perimeter=orthogonalPerimeter;outlineConnect=0;targetShapes=umlLifeline;portConstraint=eastwest;newEdgeStyle={&quot;curved&quot;:0,&quot;rounded&quot;:0};" parent="1" vertex="1">
          <mxGeometry x="599" y="-520" width="10" height="19" as="geometry" />
        </mxCell>
        <mxCell id="9UtxRmy-OZwUhLQYmwO6-60" value="&lt;font style=&quot;font-size: 16px;&quot;&gt;10 : Verifier information&lt;/font&gt;" style="html=1;align=left;spacingLeft=2;endArrow=block;rounded=0;edgeStyle=orthogonalEdgeStyle;curved=0;rounded=0;exitX=1;exitY=0;exitDx=0;exitDy=5;exitPerimeter=0;" parent="1" source="9UtxRmy-OZwUhLQYmwO6-58" edge="1">
          <mxGeometry relative="1" as="geometry">
            <mxPoint x="611" y="-530" as="sourcePoint" />
            <Array as="points">
              <mxPoint x="605" y="-530" />
              <mxPoint x="636" y="-530" />
              <mxPoint x="636" y="-503" />
            </Array>
            <mxPoint x="611" y="-503" as="targetPoint" />
          </mxGeometry>
        </mxCell>
        <mxCell id="9UtxRmy-OZwUhLQYmwO6-62" value="Alt" style="shape=umlFrame;whiteSpace=wrap;html=1;pointerEvents=0;width=99;height=22;" parent="1" vertex="1">
          <mxGeometry x="21" y="-482" width="739" height="202" as="geometry" />
        </mxCell>
        <mxCell id="9UtxRmy-OZwUhLQYmwO6-63" value="&lt;p style=&quot;text-align:justify;line-height:150%&quot; class=&quot;MsoNormal&quot;&gt;&lt;span style=&quot;font-size:12.0pt;line-height:150%;font-family:&amp;quot;Times New Roman&amp;quot;,serif&quot;&gt;&amp;nbsp;[vérifie=erroné &amp;amp;&amp;amp; nbr=3]&lt;/span&gt;&lt;/p&gt;" style="text;html=1;align=center;verticalAlign=middle;resizable=0;points=[];autosize=1;strokeColor=none;fillColor=none;" parent="1" vertex="1">
          <mxGeometry x="110" y="-490" width="200" height="60" as="geometry" />
        </mxCell>
        <mxCell id="9UtxRmy-OZwUhLQYmwO6-64" value="&lt;p style=&quot;text-align:justify;line-height:150%&quot; class=&quot;MsoNormal&quot;&gt;&lt;span style=&quot;font-size:12.0pt;line-height:150%;font-family:&amp;quot;Times New Roman&amp;quot;,serif&quot;&gt;&amp;nbsp;[vérifie=correct]&lt;/span&gt;&lt;/p&gt;" style="text;html=1;align=center;verticalAlign=middle;resizable=0;points=[];autosize=1;strokeColor=none;fillColor=none;" parent="1" vertex="1">
          <mxGeometry x="44" y="-386" width="130" height="60" as="geometry" />
        </mxCell>
        <mxCell id="9UtxRmy-OZwUhLQYmwO6-65" value="" style="html=1;points=[[0,0,0,0,5],[0,1,0,0,-5],[1,0,0,0,5],[1,1,0,0,-5]];perimeter=orthogonalPerimeter;outlineConnect=0;targetShapes=umlLifeline;portConstraint=eastwest;newEdgeStyle={&quot;curved&quot;:0,&quot;rounded&quot;:0};" parent="1" vertex="1">
          <mxGeometry x="385" y="-439" width="10" height="52" as="geometry" />
        </mxCell>
        <mxCell id="9UtxRmy-OZwUhLQYmwO6-67" value="" style="html=1;points=[[0,0,0,0,5],[0,1,0,0,-5],[1,0,0,0,5],[1,1,0,0,-5]];perimeter=orthogonalPerimeter;outlineConnect=0;targetShapes=umlLifeline;portConstraint=eastwest;newEdgeStyle={&quot;curved&quot;:0,&quot;rounded&quot;:0};" parent="1" vertex="1">
          <mxGeometry x="385" y="-357" width="10" height="52" as="geometry" />
        </mxCell>
        <mxCell id="9UtxRmy-OZwUhLQYmwO6-69" value="&lt;font style=&quot;font-size: 15px;&quot;&gt;12:&amp;nbsp;&lt;span style=&quot;background-color: light-dark(#ffffff, var(--ge-dark-color, #121212)); color: light-dark(rgb(0, 0, 0), rgb(255, 255, 255));&quot;&gt;Fermer la page&amp;nbsp;&lt;/span&gt;&lt;/font&gt;" style="html=1;verticalAlign=bottom;endArrow=open;dashed=1;endSize=8;curved=0;rounded=0;" parent="1" edge="1">
          <mxGeometry relative="1" as="geometry">
            <mxPoint x="380" y="-404" as="sourcePoint" />
            <mxPoint x="38" y="-404" as="targetPoint" />
          </mxGeometry>
        </mxCell>
        <mxCell id="9UtxRmy-OZwUhLQYmwO6-70" value="&lt;span style=&quot;font-size: 15px;&quot;&gt;13 :&amp;nbsp;&amp;nbsp;&lt;/span&gt;&lt;span style=&quot;font-size:12.0pt;line-height:107%;&lt;br/&gt;font-family:&amp;quot;Times New Roman&amp;quot;,serif;mso-fareast-font-family:Calibri;mso-fareast-theme-font:&lt;br/&gt;minor-latin;mso-ansi-language:FR;mso-fareast-language:EN-US;mso-bidi-language:&lt;br/&gt;AR-SA&quot;&gt;Délivrer un reçu&lt;/span&gt;" style="html=1;verticalAlign=bottom;endArrow=open;dashed=1;endSize=8;curved=0;rounded=0;" parent="1" edge="1">
          <mxGeometry relative="1" as="geometry">
            <mxPoint x="381" y="-330" as="sourcePoint" />
            <mxPoint x="39" y="-330" as="targetPoint" />
          </mxGeometry>
        </mxCell>
        <mxCell id="KWeY6U6hD8bEMqhmobnp-1" value="&lt;span style=&quot;font-size:12.0pt;line-height:107%;&lt;br/&gt;font-family:&amp;quot;Times New Roman&amp;quot;,serif;mso-fareast-font-family:Calibri;mso-fareast-theme-font:&lt;br/&gt;minor-latin;mso-ansi-language:FR;mso-fareast-language:EN-US;mso-bidi-language:&lt;br/&gt;AR-SA&quot;&gt;8 : Afficher formlaire de paiement&lt;/span&gt;" style="html=1;verticalAlign=bottom;endArrow=open;dashed=1;endSize=8;curved=0;rounded=0;" parent="1" edge="1">
          <mxGeometry x="0.0035" relative="1" as="geometry">
            <mxPoint x="599" y="-561" as="sourcePoint" />
            <mxPoint x="70" y="-560" as="targetPoint" />
            <mxPoint as="offset" />
          </mxGeometry>
        </mxCell>
        <mxCell id="KWeY6U6hD8bEMqhmobnp-2" value="&lt;span style=&quot;font-size:12.0pt;line-height:107%;&lt;br/&gt;font-family:&amp;quot;Times New Roman&amp;quot;,serif;mso-fareast-font-family:Calibri;mso-fareast-theme-font:&lt;br/&gt;minor-latin;mso-ansi-language:FR;mso-fareast-language:EN-US;mso-bidi-language:&lt;br/&gt;AR-SA&quot;&gt;11 : Afficher erreur&lt;/span&gt;" style="html=1;verticalAlign=bottom;endArrow=open;dashed=1;endSize=8;curved=0;rounded=0;" parent="1" edge="1">
          <mxGeometry x="0.0035" relative="1" as="geometry">
            <mxPoint x="598" y="-581" as="sourcePoint" />
            <mxPoint x="69" y="-580" as="targetPoint" />
            <mxPoint as="offset" />
          </mxGeometry>
        </mxCell>
      </root>
    </mxGraphModel>
  </diagram>
</mxfile>
